<?xml version="1.0" standalone="no"?><!DOCTYPE svg PUBLIC "-//W3C//DTD SVG 1.1//EN" "http://www.w3.org/Graphics/SVG/1.1/DTD/svg11.dtd"><svg t="1762848920729" class="icon" viewBox="0 0 1024 1024" version="1.1" xmlns="http://www.w3.org/2000/svg" p-id="1546" width="16" height="16" xmlns:xlink="http://www.w3.org/1999/xlink"><path d="M213.333 682.667v42.666a85.333 85.333 0 0 0 78.934 85.12l6.4 0.214H384A42.667 42.667 0 0 1 384 896h-85.333A170.667 170.667 0 0 1 128 725.333v-42.666a42.667 42.667 0 0 1 85.333 0z m560.043-242.603l170.667 426.667A21.333 21.333 0 0 1 924.203 896h-45.995a21.333 21.333 0 0 1-19.797-13.397L812.544 768H638.037l-45.781 114.603A21.333 21.333 0 0 1 572.416 896h-45.91a21.333 21.333 0 0 1-19.797-29.27l170.667-426.666a21.333 21.333 0 0 1 19.797-13.397h56.406a21.333 21.333 0 0 1 19.84 13.397zM725.333 549.76l-53.205 132.907h106.325l-53.12-132.907z m-384-443.093v64h149.334A21.333 21.333 0 0 1 512 192v256a21.333 21.333 0 0 1-21.333 21.333H341.333V576A21.333 21.333 0 0 1 320 597.333h-42.667A21.333 21.333 0 0 1 256 576V469.333H106.667A21.333 21.333 0 0 1 85.333 448V192a21.333 21.333 0 0 1 21.334-21.333H256v-64a21.333 21.333 0 0 1 21.333-21.334H320a21.333 21.333 0 0 1 21.333 21.334z m384 21.333A170.667 170.667 0 0 1 896 298.667v42.666a42.667 42.667 0 0 1-85.333 0v-42.666a85.333 85.333 0 0 0-85.334-85.334H640A42.667 42.667 0 0 1 640 128h85.333zM256 256h-85.333v128H256V256z m170.667 0h-85.334v128h85.334V256z" fill="#515151" p-id="1547"></path></svg>